<?xml version="1.0"?><svg xmlns="http://www.w3.org/2000/svg" id="Bahan" viewBox="0 0 64 64"><title/><path d="M49.44,7.76H25.35a1,1,0,0,0,0,2H48.44v3.8H15.56V9.76h4.11a1,1,0,0,0,0-2H14.56a1,1,0,0,0-1,1V55.25a1,1,0,0,0,1,1H49.44a1,1,0,0,0,1-1V8.76A1,1,0,0,0,49.44,7.76Zm-1,7.8V45.33H15.56V15.56ZM15.56,54.25V47.33H48.44v6.92Z"/><path d="M35.26,50H29a1,1,0,0,0,0,2h6.28A1,1,0,0,0,35.26,50Z"/><path d="M20.93,26.05H43.07a1,1,0,0,0,1-1V19.49a1,1,0,0,0-1-1H20.93a1,1,0,0,0-1,1v5.56A1,1,0,0,0,20.93,26.05Zm1-5.56H42.07v3.56H21.93Z"/><path d="M40,29.14l-2.78,2.53a6.83,6.83,0,0,0-5-2.17c-9.07.32-9.08,13.4,0,13.72a6.89,6.89,0,0,0,6.14-9.89l3-2.71A1,1,0,0,0,40,29.14Zm-2.91,7.22c-.21,6.42-9.52,6.42-9.72,0A4.85,4.85,0,0,1,35.77,33l-4.14,3.76-.95-1.6a1,1,0,0,0-1.72,1l1.57,2.66a1,1,0,0,0,1.54.23l4.76-4.33A5,5,0,0,1,37.12,36.36Z"/></svg>